{
  "accessors": [
    {
      "bufferView": 2,
      "componentType": 5126,
      "count": 28892,
      "max": [
        0.3587692081928253,
        4.192297458648682,
        0.9956589937210083
      ],
      "min": [
        -0.3587692081928253,
        0.3182743489742279,
        0.31362518668174744
      ],
      "type": "VEC3"
    },
    {
      "bufferView": 2,
      "byteOffset": 346704,
      "componentType": 5126,
      "count": 28892,
      "max": [
        0.9999988675117493,
        1.0,
        1.0
      ],
      "min": [
        -0.9999988079071045,
        -1.0,
        -0.9999232292175293
      ],
      "type": "VEC3"
    },
    {
      "bufferView": 1,
      "componentType": 5126,
      "count": 28892,
      "max": [
        0.0,
        1.0
      ],
      "min": [
        0.0,
        1.0
      ],
      "type": "VEC2"
    },
    {
      "bufferView": 0,
      "componentType": 5125,
      "count": 172992,
      "type": "SCALAR"
    },
    {
      "bufferView": 2,
      "byteOffset": 693408,
      "componentType": 5126,
      "count": 65532,
      "max": [
        0.8656384348869324,
        0.6032543182373047,
        1.0779930353164673
      ],
      "min": [
        -0.8673751950263977,
        -3.668429374694824,
        -2.3287346363067627
      ],
      "type": "VEC3"
    },
    {
      "bufferView": 2,
      "byteOffset": 1479792,
      "componentType": 5126,
      "count": 65532,
      "max": [
        1.0,
        1.0,
        0.9999988079071045
      ],
      "min": [
        -1.0,
        -1.0,
        -0.9999951124191284
      ],
      "type": "VEC3"
    },
    {
      "bufferView": 1,
      "byteOffset": 231136,
      "componentType": 5126,
      "count": 65532,
      "max": [
        1.0000001192092896,
        1.0
      ],
      "min": [
        0.0,
        -1.1920928955078125e-07
      ],
      "type": "VEC2"
    },
    {
      "bufferView": 0,
      "byteOffset": 691968,
      "componentType": 5125,
      "count": 364494,
      "type": "SCALAR"
    },
    {
      "bufferView": 2,
      "byteOffset": 2266176,
      "componentType": 5126,
      "count": 6469,
      "max": [
        1.5832483768463135e-08,
        0.3767305612564087,
        -0.17098762094974518
      ],
      "min": [
        -0.3031373918056488,
        -1.4701604843139648,
        -2.3287346363067627
      ],
      "type": "VEC3"
    },
    {
      "bufferView": 2,
      "byteOffset": 2343804,
      "componentType": 5126,
      "count": 6469,
      "max": [
        1.0,
        0.9999943971633911,
        0.9999943971633911
      ],
      "min": [
        -1.0,
        -0.9999943971633911,
        -0.9999943375587463
      ],
      "type": "VEC3"
    },
    {
      "bufferView": 1,
      "byteOffset": 755392,
      "componentType": 5126,
      "count": 6469,
      "max": [
        1.0000001192092896,
        1.0
      ],
      "min": [
        0.0,
        -1.1920928955078125e-07
      ],
      "type": "VEC2"
    },
    {
      "bufferView": 0,
      "byteOffset": 2149944,
      "componentType": 5125,
      "count": 34674,
      "type": "SCALAR"
    },
    {
      "bufferView": 2,
      "byteOffset": 2421432,
      "componentType": 5126,
      "count": 36376,
      "max": [
        0.5607919692993164,
        1.7816461324691772,
        2.5282413959503174
      ],
      "min": [
        -0.5627620220184326,
        -1.9680793285369873,
        -0.21143163740634918
      ],
      "type": "VEC3"
    },
    {
      "bufferView": 2,
      "byteOffset": 2857944,
      "componentType": 5126,
      "count": 36376,
      "max": [
        1.0,
        1.0,
        1.0
      ],
      "min": [
        -1.0,
        -1.0,
        -1.0
      ],
      "type": "VEC3"
    },
    {
      "bufferView": 1,
      "byteOffset": 807144,
      "componentType": 5126,
      "count": 36376,
      "max": [
        1.0000001192092896,
        1.0
      ],
      "min": [
        -8.940698847936801e-08,
        0.07892501354217529
      ],
      "type": "VEC2"
    },
    {
      "bufferView": 0,
      "byteOffset": 2288640,
      "componentType": 5125,
      "count": 215988,
      "type": "SCALAR"
    },
    {
      "bufferView": 2,
      "byteOffset": 3294456,
      "componentType": 5126,
      "count": 10980,
      "max": [
        0.32946762442588806,
        0.5032212734222412,
        0.3323342800140381
      ],
      "min": [
        -0.3294675648212433,
        -0.3353734016418457,
        -0.40859657526016235
      ],
      "type": "VEC3"
    },
    {
      "bufferView": 2,
      "byteOffset": 3426216,
      "componentType": 5126,
      "count": 10980,
      "max": [
        1.0,
        0.9999356865882874,
        0.9999668598175049
      ],
      "min": [
        -1.0,
        -0.9999892115592957,
        -0.998632550239563
      ],
      "type": "VEC3"
    },
    {
      "bufferView": 1,
      "byteOffset": 1098152,
      "componentType": 5126,
      "count": 10980,
      "max": [
        1.0000001192092896,
        1.0
      ],
      "min": [
        0.0,
        0.12499958276748657
      ],
      "type": "VEC2"
    },
    {
      "bufferView": 0,
      "byteOffset": 3152592,
      "componentType": 5125,
      "count": 61440,
      "type": "SCALAR"
    }
  ],
  "asset": {
    "extras": {
      "author": "Andriy Tsapko (https://sketchfab.com/andriy_tsapko)",
      "license": "CC-BY-4.0 (http://creativecommons.org/licenses/by/4.0/)",
      "source": "https://sketchfab.com/3d-models/table-lamp-bc17b1eba18e4e74a401aac7a62b5682",
      "title": "Table Lamp"
    },
    "generator": "Sketchfab-13.18.0",
    "version": "2.0"
  },
  "bufferViews": [
    {
      "buffer": 0,
      "byteLength": 3398352,
      "name": "floatBufferViews",
      "target": 34963
    },
    {
      "buffer": 0,
      "byteLength": 1185992,
      "byteOffset": 3398352,
      "byteStride": 8,
      "name": "floatBufferViews",
      "target": 34962
    },
    {
      "buffer": 0,
      "byteLength": 3557976,
      "byteOffset": 4584344,
      "byteStride": 12,
      "name": "floatBufferViews",
      "target": 34962
    }
  ],
  "buffers": [
    {
      "byteLength": 8142320,
      "uri": "scene.bin"
    }
  ],
  "materials": [
    {
      "doubleSided": true,
      "name": "Black_Plast",
      "pbrMetallicRoughness": {
        "baseColorFactor": [
          0.000257699,
          0.000257699,
          0.000257699,
          1.0
        ],
        "metallicFactor": 0.0,
        "roughnessFactor": 0.5
      }
    },
    {
      "doubleSided": true,
      "name": "Color_Plast",
      "pbrMetallicRoughness": {
        "baseColorFactor": [
          0.0,
          0.380051,
          0.165456,
          1.0
        ],
        "metallicFactor": 0.0,
        "roughnessFactor": 0.3
      }
    },
    {
      "doubleSided": true,
      "name": "Metal",
      "pbrMetallicRoughness": {
        "baseColorFactor": [
          0.0965554,
          0.0965554,
          0.0965554,
          1.0
        ],
        "roughnessFactor": 0.5
      }
    },
    {
      "doubleSided": true,
      "emissiveFactor": [
        1.0,
        1.0,
        1.0
      ],
      "name": "Light"
    }
  ],
  "meshes": [
    {
      "name": "Object_0",
      "primitives": [
        {
          "attributes": {
            "NORMAL": 1,
            "POSITION": 0,
            "TEXCOORD_0": 2
          },
          "indices": 3,
          "material": 0,
          "mode": 4
        }
      ]
    },
    {
      "name": "Object_1",
      "primitives": [
        {
          "attributes": {
            "NORMAL": 5,
            "POSITION": 4,
            "TEXCOORD_0": 6
          },
          "indices": 7,
          "material": 1,
          "mode": 4
        }
      ]
    },
    {
      "name": "Object_2",
      "primitives": [
        {
          "attributes": {
            "NORMAL": 9,
            "POSITION": 8,
            "TEXCOORD_0": 10
          },
          "indices": 11,
          "material": 1,
          "mode": 4
        }
      ]
    },
    {
      "name": "Object_3",
      "primitives": [
        {
          "attributes": {
            "NORMAL": 13,
            "POSITION": 12,
            "TEXCOORD_0": 14
          },
          "indices": 15,
          "material": 2,
          "mode": 4
        }
      ]
    },
    {
      "name": "Object_4",
      "primitives": [
        {
          "attributes": {
            "NORMAL": 17,
            "POSITION": 16,
            "TEXCOORD_0": 18
          },
          "indices": 19,
          "material": 3,
          "mode": 4
        }
      ]
    }
  ],
  "nodes": [
    {
      "children": [
        1
      ],
      "matrix": [
        1.0,
        0.0,
        0.0,
        0.0,
        0.0,
        2.220446049250313e-16,
        -1.0,
        0.0,
        0.0,
        1.0,
        2.220446049250313e-16,
        0.0,
        0.0,
        0.0,
        0.0,
        1.0
      ],
      "name": "Sketchfab_model"
    },
    {
      "children": [
        2
      ],
      "name": "root"
    },
    {
      "children": [
        3,
        5,
        8,
        10
      ],
      "matrix": [
        1.0,
        0.0,
        0.0,
        0.0,
        0.0,
        2.220446049250313e-16,
        1.0,
        0.0,
        0.0,
        -1.0,
        2.220446049250313e-16,
        0.0,
        0.0,
        0.0,
        0.0,
        1.0
      ],
      "name": "GLTF_SceneRootNode"
    },
    {
      "children": [
        4
      ],
      "name": "Black Plast_0"
    },
    {
      "mesh": 0,
      "name": "Object_4"
    },
    {
      "children": [
        6,
        7
      ],
      "matrix": [
        1.0,
        0.0,
        0.0,
        0.0,
        0.0,
        1.0,
        0.0,
        0.0,
        0.0,
        0.0,
        1.0,
        0.0,
        0.0,
        3.668428897857666,
        0.8287317752838135,
        1.0
      ],
      "name": "Color Plast_1"
    },
    {
      "mesh": 1,
      "name": "Object_6"
    },
    {
      "mesh": 2,
      "name": "Object_7"
    },
    {
      "children": [
        9
      ],
      "matrix": [
        1.0,
        0.0,
        0.0,
        0.0,
        0.0,
        1.0,
        0.0,
        0.0,
        0.0,
        0.0,
        1.0,
        0.0,
        0.0,
        2.3568365573883057,
        -1.3449161052703857,
        1.0
      ],
      "name": "Metal_2"
    },
    {
      "mesh": 3,
      "name": "Object_9"
    },
    {
      "children": [
        11
      ],
      "matrix": [
        1.0,
        0.0,
        0.0,
        0.0,
        0.0,
        1.0,
        0.0,
        0.0,
        0.0,
        0.0,
        1.0,
        0.0,
        0.0,
        3.1740448474884033,
        1.2222511768341064,
        1.0
      ],
      "name": "Light_3"
    },
    {
      "mesh": 4,
      "name": "Object_11"
    }
  ],
  "scene": 0,
  "scenes": [
    {
      "name": "Sketchfab_Scene",
      "nodes": [
        0
      ]
    }
  ]
}
