{
  "accessors": [
    {
      "bufferView": 2,
      "componentType": 5126,
      "count": 2658,
      "max": [
        7.799435615539551,
        10.0,
        2.9919145107269287
      ],
      "min": [
        -7.799435615539551,
        -14.671396255493164,
        -17.57371711730957
      ],
      "type": "VEC3"
    },
    {
      "bufferView": 2,
      "byteOffset": 31896,
      "componentType": 5126,
      "count": 2658,
      "max": [
        1.0,
        1.0,
        1.0
      ],
      "min": [
        -1.0,
        -1.0,
        -1.0
      ],
      "type": "VEC3"
    },
    {
      "bufferView": 3,
      "componentType": 5126,
      "count": 2658,
      "max": [
        1.0,
        1.0,
        1.0,
        1.0
      ],
      "min": [
        -1.0,
        -1.0,
        -1.0,
        -1.0
      ],
      "type": "VEC4"
    },
    {
      "bufferView": 1,
      "componentType": 5126,
      "count": 2658,
      "max": [
        1.0,
        0.9810131788253784
      ],
      "min": [
        0.0,
        0.00012332065671216697
      ],
      "type": "VEC2"
    },
    {
      "bufferView": 0,
      "componentType": 5125,
      "count": 7470,
      "type": "SCALAR"
    }
  ],
  "asset": {
    "extras": {
      "author": "pixelgrapher (https://sketchfab.com/pixelgrapher)",
      "license": "CC-BY-4.0 (http://creativecommons.org/licenses/by/4.0/)",
      "source": "https://sketchfab.com/3d-models/antique-iron-safe-196cf0d3d5094b50874dbf51064a7d3e",
      "title": "Antique Iron Safe"
    },
    "generator": "Sketchfab-12.67.0",
    "version": "2.0"
  },
  "bufferViews": [
    {
      "buffer": 0,
      "byteLength": 29880,
      "name": "floatBufferViews",
      "target": 34963
    },
    {
      "buffer": 0,
      "byteLength": 21264,
      "byteOffset": 29880,
      "byteStride": 8,
      "name": "floatBufferViews",
      "target": 34962
    },
    {
      "buffer": 0,
      "byteLength": 63792,
      "byteOffset": 51144,
      "byteStride": 12,
      "name": "floatBufferViews",
      "target": 34962
    },
    {
      "buffer": 0,
      "byteLength": 42528,
      "byteOffset": 114936,
      "byteStride": 16,
      "name": "floatBufferViews",
      "target": 34962
    }
  ],
  "buffers": [
    {
      "byteLength": 157464,
      "uri": "scene.bin"
    }
  ],
  "images": [
    {
      "uri": "textures/M_SafeFrontPanel_baseColor.png"
    },
    {
      "uri": "textures/M_SafeFrontPanel_metallicRoughness.png"
    },
    {
      "uri": "textures/M_SafeFrontPanel_normal.png"
    }
  ],
  "materials": [
    {
      "doubleSided": true,
      "name": "M_SafeFrontPanel",
      "normalTexture": {
        "index": 2
      },
      "occlusionTexture": {
        "index": 1,
        "strength": 0.7
      },
      "pbrMetallicRoughness": {
        "baseColorTexture": {
          "index": 0
        },
        "metallicRoughnessTexture": {
          "index": 1
        }
      }
    }
  ],
  "meshes": [
    {
      "name": "Safe_LP_M_SafeFrontPanel_0",
      "primitives": [
        {
          "attributes": {
            "NORMAL": 1,
            "POSITION": 0,
            "TANGENT": 2,
            "TEXCOORD_0": 3
          },
          "indices": 4,
          "material": 0,
          "mode": 4
        }
      ]
    }
  ],
  "nodes": [
    {
      "children": [
        1
      ],
      "matrix": [
        0.039867471903562546,
        0.0,
        0.0,
        0.0,
        0.0,
        8.852357048186331e-18,
        -0.039867471903562546,
        0.0,
        0.0,
        0.039867471903562546,
        8.852357048186331e-18,
        0.0,
        0.0,
        0.0,
        0.0,
        1.0
      ],
      "name": "Sketchfab_model"
    },
    {
      "children": [
        2
      ],
      "matrix": [
        1.0,
        0.0,
        0.0,
        0.0,
        0.0,
        0.0,
        1.0,
        0.0,
        0.0,
        -1.0,
        0.0,
        0.0,
        0.0,
        0.0,
        0.0,
        1.0
      ],
      "name": "54c25627ab024af9a933450d60969328.fbx"
    },
    {
      "children": [
        3
      ],
      "name": "RootNode"
    },
    {
      "children": [
        4
      ],
      "name": "Safe_LP"
    },
    {
      "mesh": 0,
      "name": "Safe_LP_M_SafeFrontPanel_0"
    }
  ],
  "samplers": [
    {
      "magFilter": 9729,
      "minFilter": 9987,
      "wrapS": 10497,
      "wrapT": 10497
    }
  ],
  "scene": 0,
  "scenes": [
    {
      "name": "Sketchfab_Scene",
      "nodes": [
        0
      ]
    }
  ],
  "textures": [
    {
      "sampler": 0,
      "source": 0
    },
    {
      "sampler": 0,
      "source": 1
    },
    {
      "sampler": 0,
      "source": 2
    }
  ]
}
