{
  "accessors": [
    {
      "bufferView": 2,
      "componentType": 5126,
      "count": 26522,
      "max": [
        28.848249435424805,
        74.9454574584961,
        35.61643981933594
      ],
      "min": [
        -28.848249435424805,
        -2.0902516841888428,
        -49.43977355957031
      ],
      "type": "VEC3"
    },
    {
      "bufferView": 2,
      "byteOffset": 318264,
      "componentType": 5126,
      "count": 26522,
      "max": [
        1.0,
        0.9998967051506042,
        0.9999838471412659
      ],
      "min": [
        -1.0,
        -0.9999693632125854,
        -0.9999929070472717
      ],
      "type": "VEC3"
    },
    {
      "bufferView": 1,
      "componentType": 5126,
      "count": 26522,
      "max": [
        0.9948518872261047,
        0.9295735955238342
      ],
      "min": [
        0.0020575392991304398,
        0.06775403022766113
      ],
      "type": "VEC2"
    },
    {
      "bufferView": 0,
      "componentType": 5125,
      "count": 131856,
      "type": "SCALAR"
    },
    {
      "bufferView": 2,
      "byteOffset": 636528,
      "componentType": 5126,
      "count": 4830,
      "max": [
        28.33274269104004,
        73.59539031982422,
        31.938568115234375
      ],
      "min": [
        -28.33274269104004,
        -0.3278500437736511,
        -49.06938552856445
      ],
      "type": "VEC3"
    },
    {
      "bufferView": 2,
      "byteOffset": 694488,
      "componentType": 5126,
      "count": 4830,
      "max": [
        0.9999996423721313,
        0.9981549382209778,
        0.9979693293571472
      ],
      "min": [
        -0.9999996423721313,
        -0.999987781047821,
        -0.9990869164466858
      ],
      "type": "VEC3"
    },
    {
      "bufferView": 1,
      "byteOffset": 212176,
      "componentType": 5126,
      "count": 4830,
      "max": [
        0.9946598410606384,
        0.9273402690887451
      ],
      "min": [
        0.0014292551204562187,
        0.06872069835662842
      ],
      "type": "VEC2"
    },
    {
      "bufferView": 0,
      "byteOffset": 527424,
      "componentType": 5125,
      "count": 17808,
      "type": "SCALAR"
    },
    {
      "bufferView": 2,
      "byteOffset": 752448,
      "componentType": 5126,
      "count": 17292,
      "max": [
        29.02199935913086,
        37.63798522949219,
        15.230810165405273
      ],
      "min": [
        -29.02199935913086,
        6.412956237792969,
        -21.37772560119629
      ],
      "type": "VEC3"
    },
    {
      "bufferView": 2,
      "byteOffset": 959952,
      "componentType": 5126,
      "count": 17292,
      "max": [
        1.0,
        0.9999377727508545,
        0.9999997019767761
      ],
      "min": [
        -1.0,
        -0.9999973773956299,
        -0.9999987483024597
      ],
      "type": "VEC3"
    },
    {
      "bufferView": 1,
      "byteOffset": 250816,
      "componentType": 5126,
      "count": 17292,
      "max": [
        0.9989632964134216,
        0.9996683597564697
      ],
      "min": [
        0.00032635388197377324,
        0.0009746551513671875
      ],
      "type": "VEC2"
    },
    {
      "bufferView": 0,
      "byteOffset": 598656,
      "componentType": 5125,
      "count": 85248,
      "type": "SCALAR"
    },
    {
      "bufferView": 2,
      "byteOffset": 1167456,
      "componentType": 5126,
      "count": 1786,
      "max": [
        27.494367599487305,
        32.78328323364258,
        12.98257827758789
      ],
      "min": [
        -27.494367599487305,
        17.89625358581543,
        8.868200302124023
      ],
      "type": "VEC3"
    },
    {
      "bufferView": 2,
      "byteOffset": 1188888,
      "componentType": 5126,
      "count": 1786,
      "max": [
        1.0,
        0.9022902846336365,
        0.9999804496765137
      ],
      "min": [
        -1.0,
        -0.9683537483215332,
        -0.9999265670776367
      ],
      "type": "VEC3"
    },
    {
      "bufferView": 1,
      "byteOffset": 389152,
      "componentType": 5126,
      "count": 1786,
      "max": [
        0.778670072555542,
        0.8198369145393372
      ],
      "min": [
        0.2950848937034607,
        0.1646357774734497
      ],
      "type": "VEC2"
    },
    {
      "bufferView": 0,
      "byteOffset": 939648,
      "componentType": 5125,
      "count": 8832,
      "type": "SCALAR"
    },
    {
      "bufferView": 2,
      "byteOffset": 1210320,
      "componentType": 5126,
      "count": 6780,
      "max": [
        26.589548110961914,
        -14.953536033630371,
        30.46500015258789
      ],
      "min": [
        -31.833772659301758,
        -21.71294593811035,
        -30.557619094848633
      ],
      "type": "VEC3"
    },
    {
      "bufferView": 2,
      "byteOffset": 1291680,
      "componentType": 5126,
      "count": 6780,
      "max": [
        0.9997002482414246,
        1.0,
        0.9999902844429016
      ],
      "min": [
        -0.9989391565322876,
        -1.0,
        -0.9998328685760498
      ],
      "type": "VEC3"
    },
    {
      "bufferView": 1,
      "byteOffset": 403440,
      "componentType": 5126,
      "count": 6780,
      "max": [
        1.0,
        1.0
      ],
      "min": [
        -0.011013539507985115,
        0.0
      ],
      "type": "VEC2"
    },
    {
      "bufferView": 0,
      "byteOffset": 974976,
      "componentType": 5125,
      "count": 26910,
      "type": "SCALAR"
    },
    {
      "bufferView": 2,
      "byteOffset": 1373040,
      "componentType": 5126,
      "count": 7548,
      "max": [
        24.196231842041016,
        -8.664358139038086,
        28.25035858154297
      ],
      "min": [
        -29.63986587524414,
        -16.062082290649414,
        -28.250356674194336
      ],
      "type": "VEC3"
    },
    {
      "bufferView": 2,
      "byteOffset": 1463616,
      "componentType": 5126,
      "count": 7548,
      "max": [
        1.0,
        1.0,
        0.999963641166687
      ],
      "min": [
        -0.9997915625572205,
        -0.9999914169311523,
        -0.9999637007713318
      ],
      "type": "VEC3"
    },
    {
      "bufferView": 1,
      "byteOffset": 457680,
      "componentType": 5126,
      "count": 7548,
      "max": [
        0.9920049905776978,
        0.9996734857559204
      ],
      "min": [
        0.0016955881146714091,
        0.006238341331481934
      ],
      "type": "VEC2"
    },
    {
      "bufferView": 0,
      "byteOffset": 1082616,
      "componentType": 5125,
      "count": 42000,
      "type": "SCALAR"
    },
    {
      "bufferView": 2,
      "byteOffset": 1554192,
      "componentType": 5126,
      "count": 296,
      "max": [
        4.6787824630737305,
        6.951694488525391,
        4.472009658813477
      ],
      "min": [
        -4.265237331390381,
        -9.97352123260498,
        -4.472009658813477
      ],
      "type": "VEC3"
    },
    {
      "bufferView": 2,
      "byteOffset": 1557744,
      "componentType": 5126,
      "count": 296,
      "max": [
        0.9988640546798706,
        1.0,
        0.9988641142845154
      ],
      "min": [
        -0.9988640546798706,
        -1.0,
        -0.9988641142845154
      ],
      "type": "VEC3"
    },
    {
      "bufferView": 1,
      "byteOffset": 518064,
      "componentType": 5126,
      "count": 296,
      "max": [
        1.0,
        1.0
      ],
      "min": [
        0.0,
        0.0
      ],
      "type": "VEC2"
    },
    {
      "bufferView": 0,
      "byteOffset": 1250616,
      "componentType": 5125,
      "count": 864,
      "type": "SCALAR"
    },
    {
      "bufferView": 2,
      "byteOffset": 1561296,
      "componentType": 5126,
      "count": 148,
      "max": [
        1.368340015411377,
        14.136561393737793,
        1.1615674495697021
      ],
      "min": [
        -0.9547947645187378,
        4.252688407897949,
        -1.1615674495697021
      ],
      "type": "VEC3"
    },
    {
      "bufferView": 2,
      "byteOffset": 1563072,
      "componentType": 5126,
      "count": 148,
      "max": [
        1.0,
        1.0,
        1.0
      ],
      "min": [
        -1.0,
        -1.0,
        -1.0
      ],
      "type": "VEC3"
    },
    {
      "bufferView": 1,
      "byteOffset": 520432,
      "componentType": 5126,
      "count": 148,
      "max": [
        1.0,
        1.0
      ],
      "min": [
        0.0,
        0.0
      ],
      "type": "VEC2"
    },
    {
      "bufferView": 0,
      "byteOffset": 1254072,
      "componentType": 5125,
      "count": 432,
      "type": "SCALAR"
    }
  ],
  "asset": {
    "extras": {
      "author": "kamiljaroszek (https://sketchfab.com/kamiljaroszek)",
      "license": "CC-BY-4.0 (http://creativecommons.org/licenses/by/4.0/)",
      "source": "https://sketchfab.com/3d-models/office-chair-eaa8f44a39d347b58521d0b930226ca9",
      "title": "Office Chair"
    },
    "generator": "Sketchfab-13.6.0",
    "version": "2.0"
  },
  "bufferViews": [
    {
      "buffer": 0,
      "byteLength": 1255800,
      "name": "floatBufferViews",
      "target": 34963
    },
    {
      "buffer": 0,
      "byteLength": 521616,
      "byteOffset": 1255800,
      "byteStride": 8,
      "name": "floatBufferViews",
      "target": 34962
    },
    {
      "buffer": 0,
      "byteLength": 1564848,
      "byteOffset": 1777416,
      "byteStride": 12,
      "name": "floatBufferViews",
      "target": 34962
    }
  ],
  "buffers": [
    {
      "byteLength": 3342264,
      "uri": "scene.bin"
    }
  ],
  "extensionsUsed": [
    "KHR_materials_clearcoat"
  ],
  "materials": [
    {
      "doubleSided": true,
      "name": "Bottom__0",
      "pbrMetallicRoughness": {
        "baseColorFactor": [
          0.009615739678686761,
          0.009615739678686761,
          0.009615739678686761,
          1.0
        ],
        "metallicFactor": 0.778669039753264,
        "roughnessFactor": 0.7603832697394887
      }
    },
    {
      "doubleSided": true,
      "name": "Chair",
      "pbrMetallicRoughness": {
        "baseColorFactor": [
          0.0,
          0.0,
          0.0,
          1.0
        ],
        "metallicFactor": 0.8030500664382977,
        "roughnessFactor": 0.5592397995879607
      }
    },
    {
      "doubleSided": true,
      "name": "White",
      "pbrMetallicRoughness": {
        "metallicFactor": 0.0,
        "roughnessFactor": 0.7964281530482097
      }
    },
    {
      "doubleSided": true,
      "name": "BlackPlastic",
      "pbrMetallicRoughness": {
        "baseColorFactor": [
          0.0,
          0.0,
          0.0,
          1.0
        ],
        "metallicFactor": 0.6323828796430617,
        "roughnessFactor": 0.7908595530957808
      }
    },
    {
      "doubleSided": true,
      "name": "Steel",
      "pbrMetallicRoughness": {
        "baseColorFactor": [
          0.0314744365057738,
          0.0314744365057738,
          0.0314744365057738,
          1.0
        ],
        "roughnessFactor": 0.49828723287537635
      }
    },
    {
      "doubleSided": true,
      "extensions": {
        "KHR_materials_clearcoat": {
          "clearcoatFactor": 1.0,
          "clearcoatRoughnessFactor": 0.08990503590106179
        }
      },
      "name": "Iron",
      "pbrMetallicRoughness": {
        "baseColorFactor": [
          0.15090114725019055,
          0.15090114725019055,
          0.15090114725019055,
          1.0
        ],
        "roughnessFactor": 0.6479989272348259
      }
    }
  ],
  "meshes": [
    {
      "name": "Chair_Chair_0",
      "primitives": [
        {
          "attributes": {
            "NORMAL": 1,
            "POSITION": 0,
            "TEXCOORD_0": 2
          },
          "indices": 3,
          "material": 1,
          "mode": 4
        }
      ]
    },
    {
      "name": "Chair_White_0",
      "primitives": [
        {
          "attributes": {
            "NORMAL": 5,
            "POSITION": 4,
            "TEXCOORD_0": 6
          },
          "indices": 7,
          "material": 2,
          "mode": 4
        }
      ]
    },
    {
      "name": "Handles_BlackPlastic_0",
      "primitives": [
        {
          "attributes": {
            "NORMAL": 9,
            "POSITION": 8,
            "TEXCOORD_0": 10
          },
          "indices": 11,
          "material": 3,
          "mode": 4
        }
      ]
    },
    {
      "name": "Handles_Steel_0",
      "primitives": [
        {
          "attributes": {
            "NORMAL": 13,
            "POSITION": 12,
            "TEXCOORD_0": 14
          },
          "indices": 15,
          "material": 4,
          "mode": 4
        }
      ]
    },
    {
      "name": "Bottom_BlackPlastic_0",
      "primitives": [
        {
          "attributes": {
            "NORMAL": 17,
            "POSITION": 16,
            "TEXCOORD_0": 18
          },
          "indices": 19,
          "material": 3,
          "mode": 4
        }
      ]
    },
    {
      "name": "Bottom_Steel_0",
      "primitives": [
        {
          "attributes": {
            "NORMAL": 21,
            "POSITION": 20,
            "TEXCOORD_0": 22
          },
          "indices": 23,
          "material": 4,
          "mode": 4
        }
      ]
    },
    {
      "name": "Bottom__0",
      "primitives": [
        {
          "attributes": {
            "NORMAL": 25,
            "POSITION": 24,
            "TEXCOORD_0": 26
          },
          "indices": 27,
          "material": 0,
          "mode": 4
        }
      ]
    },
    {
      "name": "Bottom_Iron_0",
      "primitives": [
        {
          "attributes": {
            "NORMAL": 29,
            "POSITION": 28,
            "TEXCOORD_0": 30
          },
          "indices": 31,
          "material": 5,
          "mode": 4
        }
      ]
    }
  ],
  "nodes": [
    {
      "children": [
        1
      ],
      "matrix": [
        1.0,
        0.0,
        0.0,
        0.0,
        0.0,
        2.220446049250313e-16,
        -1.0,
        0.0,
        0.0,
        1.0,
        2.220446049250313e-16,
        0.0,
        0.0,
        0.0,
        0.0,
        1.0
      ],
      "name": "Sketchfab_model"
    },
    {
      "children": [
        2
      ],
      "matrix": [
        0.009999999776482582,
        0.0,
        0.0,
        0.0,
        0.0,
        0.0,
        0.009999999776482582,
        0.0,
        0.0,
        -0.009999999776482582,
        0.0,
        0.0,
        0.0,
        0.0,
        0.0,
        1.0
      ],
      "name": "051bd3dfc04c48b890265471741389ce.fbx"
    },
    {
      "children": [
        3
      ],
      "name": "RootNode"
    },
    {
      "children": [
        4,
        5,
        6,
        9
      ],
      "matrix": [
        1.0,
        0.0,
        0.0,
        0.0,
        0.0,
        1.0,
        0.0,
        0.0,
        0.0,
        0.0,
        1.0,
        0.0,
        -1.0258047580718994,
        26.176916122436523,
        -2.5112686157226563,
        1.0
      ],
      "name": "Chair"
    },
    {
      "mesh": 0,
      "name": "Chair_Chair_0"
    },
    {
      "mesh": 1,
      "name": "Chair_White_0"
    },
    {
      "children": [
        7,
        8
      ],
      "name": "Handles"
    },
    {
      "mesh": 2,
      "name": "Handles_BlackPlastic_0"
    },
    {
      "mesh": 3,
      "name": "Handles_Steel_0"
    },
    {
      "children": [
        10,
        11,
        12,
        13
      ],
      "matrix": [
        1.0,
        0.0,
        0.0,
        0.0,
        0.0,
        1.0,
        0.0,
        0.0,
        0.0,
        0.0,
        1.0,
        0.0,
        -0.7559912204742432,
        -12.146620750427246,
        0.23386524617671967,
        1.0
      ],
      "name": "Bottom"
    },
    {
      "mesh": 4,
      "name": "Bottom_BlackPlastic_0"
    },
    {
      "mesh": 5,
      "name": "Bottom_Steel_0"
    },
    {
      "mesh": 6,
      "name": "Bottom__0"
    },
    {
      "mesh": 7,
      "name": "Bottom_Iron_0"
    }
  ],
  "scene": 0,
  "scenes": [
    {
      "name": "Sketchfab_Scene",
      "nodes": [
        0
      ]
    }
  ]
}
