{
  "accessors": [
    {
      "bufferView": 2,
      "componentType": 5126,
      "count": 8363,
      "max": [
        9.669639587402344,
        12.827397346496582,
        20.314502716064453
      ],
      "min": [
        -14.618715286254883,
        -12.827397346496582,
        -18.200000762939453
      ],
      "type": "VEC3"
    },
    {
      "bufferView": 2,
      "byteOffset": 100356,
      "componentType": 5126,
      "count": 8363,
      "max": [
        1.0,
        1.0,
        1.0
      ],
      "min": [
        -1.0,
        -1.0,
        -1.0
      ],
      "type": "VEC3"
    },
    {
      "bufferView": 1,
      "componentType": 5126,
      "count": 8363,
      "max": [
        0.9979259967803955,
        0.9984999895095825
      ],
      "min": [
        0.004999999888241291,
        0.004999999888241291
      ],
      "type": "VEC2"
    },
    {
      "bufferView": 0,
      "componentType": 5125,
      "count": 29220,
      "type": "SCALAR"
    },
    {
      "bufferView": 2,
      "byteOffset": 200712,
      "componentType": 5126,
      "count": 8363,
      "max": [
        9.669639587402344,
        12.827396392822266,
        35.42800521850586
      ],
      "min": [
        -14.618715286254883,
        -12.827398300170898,
        -3.086498975753784
      ],
      "type": "VEC3"
    },
    {
      "bufferView": 2,
      "byteOffset": 301068,
      "componentType": 5126,
      "count": 8363,
      "max": [
        1.0,
        1.0,
        1.0
      ],
      "min": [
        -1.0,
        -1.0,
        -1.0
      ],
      "type": "VEC3"
    },
    {
      "bufferView": 1,
      "byteOffset": 66904,
      "componentType": 5126,
      "count": 8363,
      "max": [
        0.9979259967803955,
        0.9984999895095825
      ],
      "min": [
        0.004999999888241291,
        0.004999999888241291
      ],
      "type": "VEC2"
    },
    {
      "bufferView": 0,
      "byteOffset": 116880,
      "componentType": 5125,
      "count": 29220,
      "type": "SCALAR"
    },
    {
      "bufferView": 2,
      "byteOffset": 401424,
      "componentType": 5126,
      "count": 8363,
      "max": [
        9.669639587402344,
        12.827397346496582,
        30.1697998046875
      ],
      "min": [
        -14.618715286254883,
        -12.827397346496582,
        -8.344703674316406
      ],
      "type": "VEC3"
    },
    {
      "bufferView": 2,
      "byteOffset": 501780,
      "componentType": 5126,
      "count": 8363,
      "max": [
        1.0,
        1.0,
        1.0
      ],
      "min": [
        -1.0,
        -1.0,
        -1.0
      ],
      "type": "VEC3"
    },
    {
      "bufferView": 1,
      "byteOffset": 133808,
      "componentType": 5126,
      "count": 8363,
      "max": [
        0.9979259967803955,
        0.9984999895095825
      ],
      "min": [
        0.004999999888241291,
        0.004999999888241291
      ],
      "type": "VEC2"
    },
    {
      "bufferView": 0,
      "byteOffset": 233760,
      "componentType": 5125,
      "count": 29220,
      "type": "SCALAR"
    },
    {
      "bufferView": 2,
      "byteOffset": 602136,
      "componentType": 5126,
      "count": 8363,
      "max": [
        9.669639587402344,
        12.827397346496582,
        24.911596298217773
      ],
      "min": [
        -14.618715286254883,
        -12.827397346496582,
        -13.602907180786133
      ],
      "type": "VEC3"
    },
    {
      "bufferView": 2,
      "byteOffset": 702492,
      "componentType": 5126,
      "count": 8363,
      "max": [
        1.0,
        1.0,
        1.0
      ],
      "min": [
        -1.0,
        -1.0,
        -1.0
      ],
      "type": "VEC3"
    },
    {
      "bufferView": 1,
      "byteOffset": 200712,
      "componentType": 5126,
      "count": 8363,
      "max": [
        0.9979259967803955,
        0.9984999895095825
      ],
      "min": [
        0.004999999888241291,
        0.004999999888241291
      ],
      "type": "VEC2"
    },
    {
      "bufferView": 0,
      "byteOffset": 350640,
      "componentType": 5125,
      "count": 29220,
      "type": "SCALAR"
    },
    {
      "bufferView": 2,
      "byteOffset": 802848,
      "componentType": 5126,
      "count": 8355,
      "max": [
        19.184307098388672,
        -15.48530101776123,
        20.314502716064453
      ],
      "min": [
        -8.933371543884277,
        -45.03026580810547,
        -18.200000762939453
      ],
      "type": "VEC3"
    },
    {
      "bufferView": 2,
      "byteOffset": 903108,
      "componentType": 5126,
      "count": 8355,
      "max": [
        0.9999921917915344,
        0.9999998807907104,
        1.0
      ],
      "min": [
        -0.99998939037323,
        -0.9999999403953552,
        -1.0
      ],
      "type": "VEC3"
    },
    {
      "bufferView": 1,
      "byteOffset": 267616,
      "componentType": 5126,
      "count": 8355,
      "max": [
        0.9979259967803955,
        0.9984999895095825
      ],
      "min": [
        0.004999999888241291,
        0.004999999888241291
      ],
      "type": "VEC2"
    },
    {
      "bufferView": 0,
      "byteOffset": 467520,
      "componentType": 5125,
      "count": 29214,
      "type": "SCALAR"
    },
    {
      "bufferView": 2,
      "byteOffset": 1003368,
      "componentType": 5126,
      "count": 8357,
      "max": [
        9.669639587402344,
        12.827396392822266,
        40.68621063232422
      ],
      "min": [
        -14.618715286254883,
        -12.827398300170898,
        2.1717050075531006
      ],
      "type": "VEC3"
    },
    {
      "bufferView": 2,
      "byteOffset": 1103652,
      "componentType": 5126,
      "count": 8357,
      "max": [
        1.0,
        1.0,
        1.0
      ],
      "min": [
        -1.0,
        -1.0,
        -1.0
      ],
      "type": "VEC3"
    },
    {
      "bufferView": 1,
      "byteOffset": 334456,
      "componentType": 5126,
      "count": 8357,
      "max": [
        0.9979259967803955,
        0.9984999895095825
      ],
      "min": [
        0.004999999888241291,
        0.004999999888241291
      ],
      "type": "VEC2"
    },
    {
      "bufferView": 0,
      "byteOffset": 584376,
      "componentType": 5125,
      "count": 29214,
      "type": "SCALAR"
    }
  ],
  "asset": {
    "extras": {
      "author": "Francesco Coldesina (https://sketchfab.com/topfrank2013)",
      "license": "CC-BY-4.0 (http://creativecommons.org/licenses/by/4.0/)",
      "source": "https://sketchfab.com/3d-models/classic-plastic-chairs-6d139742099d48f195e6774514ccb7ef",
      "title": "Classic Plastic Chairs"
    },
    "generator": "Sketchfab-12.65.0",
    "version": "2.0"
  },
  "bufferViews": [
    {
      "buffer": 0,
      "byteLength": 701232,
      "name": "floatBufferViews",
      "target": 34963
    },
    {
      "buffer": 0,
      "byteLength": 401312,
      "byteOffset": 701232,
      "byteStride": 8,
      "name": "floatBufferViews",
      "target": 34962
    },
    {
      "buffer": 0,
      "byteLength": 1203936,
      "byteOffset": 1102544,
      "byteStride": 12,
      "name": "floatBufferViews",
      "target": 34962
    }
  ],
  "buffers": [
    {
      "byteLength": 2306480,
      "uri": "scene.bin"
    }
  ],
  "extensionsRequired": [
    "KHR_materials_pbrSpecularGlossiness"
  ],
  "extensionsUsed": [
    "KHR_materials_pbrSpecularGlossiness"
  ],
  "images": [
    {
      "uri": "textures/LR_Final001_diffuse.jpeg"
    },
    {
      "uri": "textures/LR_Final001_specularGlossiness.png"
    },
    {
      "uri": "textures/LR_Final001_occlusion.png"
    },
    {
      "uri": "textures/LR_Final001_Blue_diffuse.jpeg"
    },
    {
      "uri": "textures/LR_Final001_Red_diffuse.jpeg"
    },
    {
      "uri": "textures/LR_Final001_White_diffuse.jpeg"
    }
  ],
  "materials": [
    {
      "doubleSided": true,
      "emissiveTexture": {
        "index": 0
      },
      "extensions": {
        "KHR_materials_pbrSpecularGlossiness": {
          "diffuseFactor": [
            1.0,
            1.0,
            1.0,
            1.0
          ],
          "diffuseTexture": {
            "index": 0
          },
          "glossinessFactor": 1.0,
          "specularFactor": [
            1.0,
            1.0,
            1.0
          ],
          "specularGlossinessTexture": {
            "index": 1
          }
        }
      },
      "name": "LR_Final001",
      "occlusionTexture": {
        "index": 2
      }
    },
    {
      "doubleSided": true,
      "emissiveTexture": {
        "index": 3
      },
      "extensions": {
        "KHR_materials_pbrSpecularGlossiness": {
          "diffuseFactor": [
            1.0,
            1.0,
            1.0,
            1.0
          ],
          "diffuseTexture": {
            "index": 3
          },
          "glossinessFactor": 1.0,
          "specularFactor": [
            1.0,
            1.0,
            1.0
          ],
          "specularGlossinessTexture": {
            "index": 1
          }
        }
      },
      "name": "LR_Final001_Blue",
      "occlusionTexture": {
        "index": 2
      }
    },
    {
      "doubleSided": true,
      "emissiveTexture": {
        "index": 4
      },
      "extensions": {
        "KHR_materials_pbrSpecularGlossiness": {
          "diffuseFactor": [
            1.0,
            1.0,
            1.0,
            1.0
          ],
          "diffuseTexture": {
            "index": 4
          },
          "glossinessFactor": 1.0,
          "specularFactor": [
            1.0,
            1.0,
            1.0
          ],
          "specularGlossinessTexture": {
            "index": 1
          }
        }
      },
      "name": "LR_Final001_Red",
      "occlusionTexture": {
        "index": 2
      }
    },
    {
      "doubleSided": true,
      "emissiveTexture": {
        "index": 5
      },
      "extensions": {
        "KHR_materials_pbrSpecularGlossiness": {
          "diffuseFactor": [
            1.0,
            1.0,
            1.0,
            1.0
          ],
          "diffuseTexture": {
            "index": 5
          },
          "glossinessFactor": 1.0,
          "specularFactor": [
            1.0,
            1.0,
            1.0
          ],
          "specularGlossinessTexture": {
            "index": 1
          }
        }
      },
      "name": "LR_Final001_White",
      "occlusionTexture": {
        "index": 2
      }
    }
  ],
  "meshes": [
    {
      "name": "Object_0",
      "primitives": [
        {
          "attributes": {
            "NORMAL": 1,
            "POSITION": 0,
            "TEXCOORD_0": 2
          },
          "indices": 3,
          "material": 0,
          "mode": 4
        }
      ]
    },
    {
      "name": "Object_1",
      "primitives": [
        {
          "attributes": {
            "NORMAL": 5,
            "POSITION": 4,
            "TEXCOORD_0": 6
          },
          "indices": 7,
          "material": 0,
          "mode": 4
        }
      ]
    },
    {
      "name": "Object_2",
      "primitives": [
        {
          "attributes": {
            "NORMAL": 9,
            "POSITION": 8,
            "TEXCOORD_0": 10
          },
          "indices": 11,
          "material": 1,
          "mode": 4
        }
      ]
    },
    {
      "name": "Object_3",
      "primitives": [
        {
          "attributes": {
            "NORMAL": 13,
            "POSITION": 12,
            "TEXCOORD_0": 14
          },
          "indices": 15,
          "material": 2,
          "mode": 4
        }
      ]
    },
    {
      "name": "Object_4",
      "primitives": [
        {
          "attributes": {
            "NORMAL": 17,
            "POSITION": 16,
            "TEXCOORD_0": 18
          },
          "indices": 19,
          "material": 2,
          "mode": 4
        }
      ]
    },
    {
      "name": "Object_5",
      "primitives": [
        {
          "attributes": {
            "NORMAL": 21,
            "POSITION": 20,
            "TEXCOORD_0": 22
          },
          "indices": 23,
          "material": 3,
          "mode": 4
        }
      ]
    }
  ],
  "nodes": [
    {
      "children": [
        1
      ],
      "matrix": [
        1.0,
        0.0,
        0.0,
        0.0,
        0.0,
        2.220446049250313e-16,
        -1.0,
        0.0,
        0.0,
        1.0,
        2.220446049250313e-16,
        0.0,
        0.0,
        0.0,
        0.0,
        1.0
      ],
      "name": "Sketchfab_model"
    },
    {
      "children": [
        2,
        3,
        4,
        5,
        6,
        7
      ],
      "name": "Impilate Plastic Chair LR.obj.cleaner.materialmerger.gles"
    },
    {
      "mesh": 0,
      "name": "Object_2"
    },
    {
      "mesh": 1,
      "name": "Object_3"
    },
    {
      "mesh": 2,
      "name": "Object_4"
    },
    {
      "mesh": 3,
      "name": "Object_5"
    },
    {
      "mesh": 4,
      "name": "Object_6"
    },
    {
      "mesh": 5,
      "name": "Object_7"
    }
  ],
  "samplers": [
    {
      "magFilter": 9729,
      "minFilter": 9987,
      "wrapS": 10497,
      "wrapT": 10497
    }
  ],
  "scene": 0,
  "scenes": [
    {
      "name": "Sketchfab_Scene",
      "nodes": [
        0
      ]
    }
  ],
  "textures": [
    {
      "sampler": 0,
      "source": 0
    },
    {
      "sampler": 0,
      "source": 1
    },
    {
      "sampler": 0,
      "source": 2
    },
    {
      "sampler": 0,
      "source": 3
    },
    {
      "sampler": 0,
      "source": 4
    },
    {
      "sampler": 0,
      "source": 5
    }
  ]
}
