{
  "accessors": [
    {
      "bufferView": 2,
      "componentType": 5126,
      "count": 4817,
      "max": [
        1.4109909534454346,
        2.689436912536621,
        3.996201992034912
      ],
      "min": [
        -1.4109909534454346,
        -2.689436912536621,
        0.934827983379364
      ],
      "type": "VEC3"
    },
    {
      "bufferView": 2,
      "byteOffset": 57804,
      "componentType": 5126,
      "count": 4817,
      "max": [
        1.0,
        1.0,
        1.0
      ],
      "min": [
        -1.0,
        -1.0,
        -1.0
      ],
      "type": "VEC3"
    },
    {
      "bufferView": 1,
      "componentType": 5126,
      "count": 4817,
      "max": [
        0.875,
        1.0
      ],
      "min": [
        0.125,
        0.0
      ],
      "type": "VEC2"
    },
    {
      "bufferView": 0,
      "componentType": 5125,
      "count": 28272,
      "type": "SCALAR"
    },
    {
      "bufferView": 2,
      "byteOffset": 115608,
      "componentType": 5126,
      "count": 6256,
      "max": [
        1.4430040121078491,
        1.9868040084838867,
        3.7444798946380615
      ],
      "min": [
        1.1588640213012695,
        1.0462820529937744,
        2.4683170318603516
      ],
      "type": "VEC3"
    },
    {
      "bufferView": 2,
      "byteOffset": 190680,
      "componentType": 5126,
      "count": 6256,
      "max": [
        1.0,
        1.0,
        1.0
      ],
      "min": [
        -1.0,
        -1.0,
        -1.0
      ],
      "type": "VEC3"
    },
    {
      "bufferView": 1,
      "byteOffset": 38536,
      "componentType": 5126,
      "count": 6256,
      "max": [
        1.0,
        1.0
      ],
      "min": [
        0.0,
        -0.0
      ],
      "type": "VEC2"
    },
    {
      "bufferView": 0,
      "byteOffset": 113088,
      "componentType": 5125,
      "count": 35520,
      "type": "SCALAR"
    }
  ],
  "asset": {
    "extras": {
      "author": "Chirag Panchal (https://sketchfab.com/3d_kalaakar)",
      "license": "CC-BY-4.0 (http://creativecommons.org/licenses/by/4.0/)",
      "source": "https://sketchfab.com/3d-models/computer-table-bf2423953fb7419eb0769906ffaf5c54",
      "title": "Computer Table"
    },
    "generator": "Sketchfab-13.12.0",
    "version": "2.0"
  },
  "bufferViews": [
    {
      "buffer": 0,
      "byteLength": 255168,
      "name": "floatBufferViews",
      "target": 34963
    },
    {
      "buffer": 0,
      "byteLength": 88584,
      "byteOffset": 255168,
      "byteStride": 8,
      "name": "floatBufferViews",
      "target": 34962
    },
    {
      "buffer": 0,
      "byteLength": 265752,
      "byteOffset": 343752,
      "byteStride": 12,
      "name": "floatBufferViews",
      "target": 34962
    }
  ],
  "buffers": [
    {
      "byteLength": 609504,
      "uri": "scene.bin"
    }
  ],
  "extensionsRequired": [
    "KHR_materials_pbrSpecularGlossiness"
  ],
  "extensionsUsed": [
    "KHR_materials_pbrSpecularGlossiness"
  ],
  "materials": [
    {
      "doubleSided": true,
      "extensions": {
        "KHR_materials_pbrSpecularGlossiness": {
          "diffuseFactor": [
            0.34493772929430566,
            0.20220487579321372,
            0.13083844904266784,
            1.0
          ],
          "glossinessFactor": 0.0,
          "specularFactor": [
            0.0,
            0.0,
            0.0
          ]
        }
      },
      "name": "blinn2SG"
    },
    {
      "doubleSided": true,
      "extensions": {
        "KHR_materials_pbrSpecularGlossiness": {
          "diffuseFactor": [
            0.18,
            0.18,
            0.18,
            1.0
          ],
          "glossinessFactor": 0.0,
          "specularFactor": [
            0.0,
            0.0,
            0.0
          ]
        }
      },
      "name": "blinn3SG"
    }
  ],
  "meshes": [
    {
      "name": "Object_0",
      "primitives": [
        {
          "attributes": {
            "NORMAL": 1,
            "POSITION": 0,
            "TEXCOORD_0": 2
          },
          "indices": 3,
          "material": 0,
          "mode": 4
        }
      ]
    },
    {
      "name": "Object_1",
      "primitives": [
        {
          "attributes": {
            "NORMAL": 5,
            "POSITION": 4,
            "TEXCOORD_0": 6
          },
          "indices": 7,
          "material": 1,
          "mode": 4
        }
      ]
    }
  ],
  "nodes": [
    {
      "children": [
        1
      ],
      "matrix": [
        0.33174121379852295,
        0.0,
        0.0,
        0.0,
        0.0,
        7.366134675524337e-17,
        -0.33174121379852295,
        0.0,
        0.0,
        0.33174121379852295,
        7.366134675524337e-17,
        0.0,
        0.0,
        0.0,
        0.0,
        1.0
      ],
      "name": "Sketchfab_model"
    },
    {
      "children": [
        2,
        3
      ],
      "name": "Computer table.obj.cleaner.materialmerger.gles"
    },
    {
      "mesh": 0,
      "name": "Object_2"
    },
    {
      "mesh": 1,
      "name": "Object_3"
    }
  ],
  "scene": 0,
  "scenes": [
    {
      "name": "Sketchfab_Scene",
      "nodes": [
        0
      ]
    }
  ]
}
